<svg width="85" height="85" viewBox="0 0 85 85" fill="none" xmlns="http://www.w3.org/2000/svg">
<path d="M61.9687 37.45C61.5677 36.4353 60.42 35.9384 59.405 36.3391C58.3903 36.7403 57.8931 37.8881 58.2942 38.9028C59.2982 41.442 59.807 44.1257 59.807 46.8795C59.807 58.8419 50.075 68.5742 38.1124 68.5742C26.1489 68.5742 16.4156 58.8419 16.4156 46.8795C16.4156 34.9171 26.1489 25.1847 38.1124 25.1847C40.8758 25.1847 43.564 25.6968 46.1024 26.7068C47.1159 27.1107 48.2649 26.6152 48.6683 25.6017C49.0718 24.5878 48.577 23.439 47.5632 23.0356C44.558 21.8397 41.3782 21.2334 38.1126 21.2334C23.9704 21.2334 12.4644 32.738 12.4644 46.8793C12.4644 61.0205 23.9698 72.5252 38.1124 72.5252C52.2534 72.5252 63.7583 61.0206 63.7583 46.8794C63.7582 43.6262 63.156 40.4537 61.9687 37.45Z" fill="#52B04F"/>
<path d="M74.1488 36.5476C73.8486 35.4985 72.7556 34.8923 71.706 35.1918C70.6569 35.492 70.0499 36.5858 70.3501 37.6346C71.2064 40.628 71.6407 43.7385 71.6407 46.8791C71.6407 65.3679 56.5999 80.4101 38.1122 80.4101C19.6233 80.4101 4.58146 65.3681 4.58146 46.8791C4.58146 28.39 19.6232 13.3484 38.1122 13.3484C41.26 13.3484 44.3757 13.7846 47.3723 14.645C48.4212 14.9459 49.5153 14.3402 49.8163 13.2913C50.1174 12.2425 49.5114 11.1482 48.4626 10.8473C45.1115 9.88496 41.629 9.39697 38.1122 9.39697C17.4445 9.39715 0.630127 26.2115 0.630127 46.8793C0.630127 67.547 17.4445 84.3615 38.1122 84.3615C58.7786 84.3615 75.5921 67.5471 75.5921 46.8793C75.592 43.3706 75.1064 39.8945 74.1488 36.5476Z" fill="#52B04F"/>
<path d="M51.8681 45.6729C51.7713 44.5861 50.8111 43.788 49.7248 43.8807C48.6379 43.9776 47.8354 44.9374 47.9325 46.0242C47.9575 46.3055 47.9703 46.5933 47.9703 46.8792C47.9703 52.3153 43.5478 56.7376 38.112 56.7376C32.6748 56.7376 28.2514 52.3151 28.2514 46.8792C28.2516 41.4419 32.675 37.0186 38.1122 37.0186C38.416 37.0186 38.7132 37.0318 38.9964 37.0578C40.0839 37.1576 41.0449 36.3584 41.1452 35.2718C41.2454 34.1853 40.4457 33.2235 39.3593 33.123C38.9563 33.0859 38.5367 33.0671 38.1125 33.0671C30.4966 33.0671 24.3005 39.2629 24.3005 46.879C24.3005 54.4938 30.4966 60.6886 38.1125 60.6886C45.727 60.6886 51.9221 54.4938 51.9221 46.879C51.9217 46.4765 51.9037 46.0704 51.8681 45.6729Z" fill="#2A3379"/>
<path d="M84.0673 13.9211C83.4534 12.439 82.02 11.4811 80.4158 11.4811H73.527V4.59254C73.527 2.98804 72.5693 1.55479 71.0872 0.941044C69.6057 0.327389 67.9156 0.663809 66.7816 1.79785L55.2712 13.3083C54.1521 14.4272 53.536 15.9152 53.536 17.4983V28.6781L37.4799 44.7342C36.7084 45.5057 36.7084 46.7567 37.4799 47.5284C37.8655 47.9141 38.3713 48.107 38.8768 48.107C39.3823 48.107 39.888 47.9141 40.2738 47.5284L56.3301 31.472H67.5098C69.0928 31.472 70.581 30.8558 71.6997 29.7371L83.2102 18.2264C84.3446 17.0921 84.6808 15.4023 84.0673 13.9211ZM57.4873 17.4982C57.4875 16.9707 57.6927 16.4747 58.0653 16.1024L69.5757 4.59369V12.6386L57.4872 24.7271L57.4873 17.4982ZM68.9059 26.9429C68.5388 27.31 68.0298 27.5208 67.5099 27.5208H60.2814L72.3696 15.4326L80.4151 15.4336L68.9059 26.9429Z" fill="#2A3379"/>
</svg>
