<svg width="113" height="113" viewBox="0 0 113 113" fill="none" xmlns="http://www.w3.org/2000/svg">
<path d="M77.97 83.62C76.84 83.62 75.9925 83.055 75.4275 82.2075C74.58 80.795 75.145 79.1 76.5575 78.2525C88.9875 71.4725 97.18 58.76 98.31 44.635C98.31 43.7875 98.5925 42.94 98.5925 42.0925V41.81C98.31 29.6625 88.14 19.4925 75.9925 19.4925C69.495 19.4925 63.28 22.3175 58.76 27.4025C57.63 28.5325 55.6525 28.5325 54.5225 27.4025C50.285 22.3175 44.07 19.4925 37.29 19.4925C24.86 19.4925 14.69 29.6625 14.69 42.0925C14.69 42.94 14.69 43.7875 14.9725 44.9175C15.255 50.85 17.2325 56.7825 20.34 62.15C21.1875 63.5625 20.6225 65.2575 19.21 66.105C17.7975 66.9525 16.1025 66.3875 15.255 64.975C11.865 59.0425 9.8875 52.2625 9.3225 45.4825C9.04 44.3525 9.04 43.2225 9.04 42.0925C9.04 26.555 21.7525 13.8425 37.29 13.8425C44.3525 13.8425 51.415 16.6675 56.5 21.47C61.585 16.6675 68.6475 13.8425 75.71 13.8425C90.965 13.8425 103.395 25.99 103.96 41.245V42.0925C103.96 43.2225 103.96 44.3525 103.678 45.4825C102.548 61.585 93.225 75.71 79.1 83.62C78.8175 83.3375 78.2525 83.62 77.97 83.62Z" fill="#52B04F"/>
<path d="M51.415 67.8C51.1325 67.8 50.85 67.8 50.85 67.5175C50.285 67.235 50.0025 66.3875 50.285 65.54C51.98 62.15 55.0875 59.89 58.76 58.76C62.4325 57.63 66.105 58.195 69.495 59.89C70.06 60.1725 70.3425 61.02 70.06 61.8675C69.7775 62.4325 68.93 62.715 68.0825 62.4325C65.54 61.02 62.4325 60.7375 59.6075 61.585C56.7825 62.4325 54.24 64.41 52.8275 66.9525C52.2625 67.5175 51.98 67.8 51.415 67.8Z" fill="#2A3379"/>
<path d="M45.2 62.9975C44.9175 62.9975 44.635 62.9975 44.635 62.715C44.07 62.4325 43.7875 61.585 44.07 60.7375C49.4375 51.1325 61.585 47.46 71.4725 52.8275C72.0375 53.11 72.32 53.9575 72.0375 54.805C71.755 55.37 70.9075 55.6525 70.06 55.37C61.585 50.85 51.1325 53.9575 46.6125 62.15C46.0475 62.715 45.765 62.9975 45.2 62.9975Z" fill="#2A3379"/>
<path d="M64.975 98.3101C56.7825 98.3101 50.0025 91.5301 50.0025 83.3376C50.0025 75.1451 56.7825 68.3651 64.975 68.3651C73.1675 68.3651 79.9475 75.1451 79.9475 83.3376C79.9475 91.5301 73.45 98.3101 64.975 98.3101ZM64.975 74.015C59.89 74.015 55.6525 78.2526 55.6525 83.3376C55.6525 88.4226 59.89 92.6601 64.975 92.6601C70.06 92.6601 74.2975 88.4226 74.2975 83.3376C74.2975 78.2526 70.06 74.015 64.975 74.015ZM24.295 67.5176C25.1425 67.5176 25.99 67.8001 26.555 68.6476L30.51 73.7325C31.3575 74.8625 31.3575 76.8401 29.945 77.6876L27.12 79.6651C26.555 79.9476 25.99 80.2301 25.425 80.2301C24.5775 80.2301 23.73 79.9476 23.165 79.1001L19.21 74.015C18.3625 72.885 18.3625 70.9076 19.775 70.0601L22.6 68.0826C23.165 67.8001 23.73 67.5176 24.295 67.5176ZM24.295 61.8676C22.3175 61.8676 20.6225 62.4326 19.21 63.5626L16.385 65.5401C12.7125 68.3651 11.865 73.7326 14.9725 77.4051L18.9275 82.4901C20.6225 84.4676 22.8825 85.8801 25.7075 85.8801C27.685 85.8801 29.38 85.3151 30.7925 84.1851L33.6175 82.2076C35.3125 80.7951 36.4425 78.8176 36.725 76.5576C37.0075 74.2976 36.4425 72.0376 35.03 70.3426L31.075 65.2576C29.6625 62.9976 27.12 61.8676 24.295 61.8676Z" fill="#52B04F"/>
</svg>
