<svg width="94" height="86" viewBox="0 0 94 86" fill="none" xmlns="http://www.w3.org/2000/svg">
<path d="M15.3665 50.7567L14.7526 48.9613L14.7104 48.8177L9.59591 28.0493C9.44333 27.5184 9.18698 27.0225 8.84148 26.59C8.49598 26.1575 8.06811 25.7968 7.58229 25.5286C7.09647 25.2604 6.56223 25.0898 6.01006 25.0267C5.45789 24.9636 4.89861 25.0091 4.36416 25.1607C3.8297 25.3123 3.33054 25.567 2.89516 25.9102C2.45978 26.2534 2.09672 26.6784 1.8267 27.161C1.55668 27.6436 1.385 28.1743 1.32145 28.7228C1.25791 29.2713 1.30374 29.8269 1.45634 30.3578L8.32117 56.7573C8.42445 57.1895 8.57385 57.6095 8.76682 58.0102C11.027 62.4724 19.2807 70.0799 22.7192 71.7768C22.9618 71.9016 23.1748 72.0764 23.3439 72.2896C23.5131 72.5027 23.6344 72.7493 23.6999 73.0127L26.3088 82.9098C26.4142 83.3095 26.6499 83.6633 26.9792 83.9157C27.3085 84.1682 27.7127 84.3051 28.1286 84.3051H40.1037C40.3925 84.3052 40.6773 84.2391 40.9363 84.1122C41.1952 83.9853 41.4212 83.8009 41.5968 83.5732C41.7725 83.3456 41.893 83.0808 41.9491 82.7995C42.0052 82.5181 41.9953 82.2277 41.9203 81.9507L38.9978 70.908L37.69 66.7958C36.9917 64.6 35.8734 62.5588 34.3964 60.784L22.545 46.5432C22.0627 45.9636 21.4212 45.5356 20.6987 45.3113C19.9761 45.0869 19.2035 45.0759 18.4748 45.2795L18.4407 45.289L18.4228 45.2941C17.861 45.4534 17.3363 45.7211 16.8787 46.0818C16.4211 46.4425 16.0395 46.8893 15.7557 47.3966C15.4719 47.9038 15.2914 48.4616 15.2246 49.0382C15.1579 49.6147 15.2061 50.1987 15.3665 50.7567ZM15.3665 50.7567C15.7026 51.926 16.308 53.0015 17.135 53.8981L25.41 62.8687" stroke="#52B04F" stroke-width="2" stroke-linecap="round" stroke-linejoin="round"/>
<path d="M78.6336 50.7567L79.2476 48.9613L79.2897 48.8177L84.4042 28.0493C84.5568 27.5184 84.8131 27.0225 85.1586 26.59C85.5041 26.1575 85.932 25.7968 86.4178 25.5286C86.9036 25.2604 87.4379 25.0898 87.9901 25.0267C88.5422 24.9636 89.1015 25.0091 89.636 25.1607C90.1704 25.3123 90.6696 25.567 91.105 25.9102C91.5403 26.2534 91.9034 26.6784 92.1734 27.161C92.4434 27.6436 92.6151 28.1743 92.6787 28.7229C92.7422 29.2714 92.6964 29.8269 92.5438 30.3578L85.679 56.7573C85.5757 57.1895 85.4263 57.6095 85.2333 58.0102C82.9732 62.4724 74.7194 70.0799 71.2809 71.7768C71.0383 71.9016 70.8253 72.0764 70.6562 72.2896C70.4871 72.5027 70.3657 72.7493 70.3002 73.0128L67.6913 82.9098C67.586 83.3095 67.3502 83.6633 67.0209 83.9158C66.6917 84.1682 66.2875 84.3052 65.8715 84.3052H53.8963C53.6076 84.3052 53.3227 84.2391 53.0638 84.1122C52.8049 83.9853 52.5789 83.8009 52.4032 83.5732C52.2276 83.3456 52.1071 83.0808 52.051 82.7995C51.9949 82.5181 52.0047 82.2277 52.0798 81.9508L55.0023 70.908L56.3101 66.7958C57.0084 64.6 58.1267 62.5588 59.6037 60.784L71.4551 46.5432C71.9374 45.9636 72.5788 45.5356 73.3014 45.3113C74.024 45.087 74.7966 45.0759 75.5253 45.2795L75.5594 45.289L75.5773 45.2941C76.1391 45.4534 76.6637 45.7211 77.1214 46.0818C77.579 46.4426 77.9606 46.8893 78.2444 47.3966C78.5282 47.9038 78.7087 48.4616 78.7754 49.0382C78.8422 49.6147 78.794 50.1987 78.6336 50.7567ZM78.6336 50.7567C78.2976 51.926 77.6921 53.0015 76.8651 53.8981L68.5902 62.8688" stroke="#52B04F" stroke-width="2" stroke-linecap="round" stroke-linejoin="round"/>
<path d="M52.4083 42.0969H41.5919C41.419 42.097 41.2477 42.0633 41.088 41.9976C40.9282 41.9319 40.7831 41.8356 40.6608 41.7142C40.5386 41.5927 40.4416 41.4485 40.3755 41.2898C40.3094 41.1311 40.2754 40.961 40.2755 40.7893V28.576H27.9785C27.8057 28.5758 27.6347 28.5419 27.4752 28.4762C27.3156 28.4104 27.1707 28.314 27.0487 28.1926C26.9267 28.0712 26.8299 27.927 26.7639 27.7685C26.698 27.6099 26.6641 27.4399 26.6643 27.2684V16.5236C26.6641 16.352 26.698 16.1821 26.7639 16.0235C26.8299 15.8649 26.9267 15.7208 27.0487 15.5994C27.1707 15.4779 27.3156 15.3816 27.4752 15.3158C27.6347 15.25 27.8057 15.2161 27.9785 15.216H40.2754V3.00243C40.2753 2.83068 40.3093 2.66059 40.3754 2.50189C40.4415 2.34319 40.5385 2.199 40.6607 2.07755C40.783 1.95611 40.9281 1.85979 41.0879 1.79412C41.2476 1.72845 41.4189 1.69471 41.5918 1.69482H52.4083C52.7574 1.69497 53.0921 1.83279 53.3389 2.07798C53.5857 2.32317 53.7245 2.65568 53.7246 3.00243V15.2158H66.0193C66.1922 15.2156 66.3634 15.2494 66.5232 15.315C66.683 15.3807 66.8282 15.477 66.9504 15.5985C67.0727 15.7199 67.1697 15.8641 67.2358 16.0228C67.3019 16.1815 67.3359 16.3516 67.3358 16.5234V27.2681C67.3359 27.4399 67.3019 27.61 67.2358 27.7687C67.1697 27.9274 67.0727 28.0716 66.9504 28.193C66.8281 28.3145 66.683 28.4108 66.5232 28.4765C66.3634 28.5421 66.1922 28.5759 66.0193 28.5757H53.7247V40.7891C53.7245 41.1358 53.5858 41.4683 53.339 41.7135C53.0921 41.9587 52.7574 42.0967 52.4083 42.0969Z" stroke="#2A3379" stroke-width="2" stroke-linecap="round" stroke-linejoin="round"/>
</svg>
