<svg width="148" height="148" viewBox="0 0 148 148" fill="none" xmlns="http://www.w3.org/2000/svg">
<g clip-path="url(#clip0_3_470)">
<path fill-rule="evenodd" clip-rule="evenodd" d="M74 0.5C114.59 0.5 147.5 33.4099 147.5 74C147.5 114.59 114.59 147.5 74 147.5C33.4099 147.5 0.5 114.59 0.5 74C0.5 33.4099 33.4099 0.5 74 0.5ZM100.163 78.5459C103.907 76.1294 103.895 73.4377 100.163 71.2964L61.4868 49.0693C58.4363 47.1553 55.2542 48.2798 55.3379 52.2634L55.4575 97.1841C55.7207 101.503 58.1851 102.687 61.8218 100.689L100.163 78.5459ZM74 15.4297C106.348 15.4297 132.57 41.6523 132.57 74C132.57 106.348 106.348 132.57 74 132.57C41.6523 132.57 15.4297 106.348 15.4297 74C15.4297 41.6523 41.6523 15.4297 74 15.4297Z" fill="white"/>
</g>
<defs>
<clipPath id="clip0_3_470">
<rect width="147" height="147" fill="white" transform="translate(0.5 0.5)"/>
</clipPath>
</defs>
</svg>
