<svg width="73" height="51" viewBox="0 0 73 51" fill="none" xmlns="http://www.w3.org/2000/svg">
<g clip-path="url(#clip0_8_34)">
<path d="M1.46414 20.4836C5.43835 8.56967 15.0601 0 24.2636 0C25.1002 0 25.7277 0 26.5644 0.209016C26.9828 0.209016 27.4011 0.418033 27.6103 0.836066C27.8194 1.04508 27.8194 1.46311 27.8194 1.88115L25.9369 7.73361C25.7277 8.36066 25.1002 8.77869 24.4727 8.56967H24.2636C20.9169 8.56967 14.4326 12.959 11.2951 22.7828C11.0859 23.2008 11.0859 23.6189 10.8767 24.0369C14.6418 22.5738 18.8252 22.1557 22.5902 22.9918C31.3753 25.082 36.6045 33.0246 34.0945 40.5492C32.0028 46.6107 25.5186 51 18.1977 51C16.7335 51 15.2693 50.791 13.8051 50.373C7.94838 48.9098 3.34666 44.5205 1.46414 38.668C-0.418384 32.8156 -0.418384 26.5451 1.46414 20.4836Z" fill="#55AF4D"/>
<path d="M62.5415 0C63.3782 0 64.0057 0 64.8424 0.209016C65.2607 0.209016 65.6791 0.418033 65.8883 0.836066C66.0974 1.04508 66.0974 1.46311 66.0974 1.88115L64.2149 7.73361C64.0057 8.36066 63.3782 8.77869 62.7507 8.56967H62.5415C59.1948 8.56967 52.7106 12.959 49.5731 22.7828C49.3639 23.2008 49.3639 23.6189 49.1547 24.0369C52.9198 22.5738 57.1032 22.1557 60.8682 22.9918C69.6533 25.082 74.8825 33.0246 72.3725 40.5492C70.49 46.6107 63.7966 51 56.4756 51C55.0115 51 53.5473 50.791 52.0831 50.373C46.2264 48.9098 41.6246 44.5205 39.7421 38.668C37.8596 32.8156 37.8596 26.3361 39.9513 20.2746C43.7163 8.56967 53.3381 0 62.5415 0Z" fill="#55AF4D"/>
</g>
<defs>
<clipPath id="clip0_8_34">
<rect width="73" height="51" fill="white"/>
</clipPath>
</defs>
</svg>
